<?xml version="1.0" encoding="UTF-8"?><svg id="a" xmlns="http://www.w3.org/2000/svg" xmlns:xlink="http://www.w3.org/1999/xlink" viewBox="0 0 1024 1024"><defs><style>.g{fill:#736c7c;}.h{filter:url(#e);}.i{fill:url(#d);}.j{filter:url(#b);}.k{fill:#c8bcd7;}.l{fill:#9e96ab;}</style><filter id="b" filterUnits="userSpaceOnUse"><feOffset dx="-14" dy="12"/><feGaussianBlur result="c" stdDeviation="10"/><feFlood flood-color="#000" flood-opacity=".5"/><feComposite in2="c" operator="in"/><feComposite in="SourceGraphic"/></filter><linearGradient id="d" x1="134.04" y1="512" x2="889.96" y2="512" gradientUnits="userSpaceOnUse"><stop offset="0" stop-color="#f0b1b9"/><stop offset=".5" stop-color="#f4f19e"/><stop offset="1" stop-color="#8ccce8"/></linearGradient><filter id="e" filterUnits="userSpaceOnUse"><feOffset dx="-14" dy="12"/><feGaussianBlur result="f" stdDeviation="10"/><feFlood flood-color="#000" flood-opacity=".5"/><feComposite in2="f" operator="in"/><feComposite in="SourceGraphic"/></filter></defs><g class="j"><path class="i" d="M889.96,442.34c0,149.2-101.74,228.22-116.05,243.73-30.48,23.93-63.1,51.07-135.43,75.14,135.83-64.57,207.36-184.37,207.36-318.73,0-178.08-149.2-322.61-333.17-322.61S179.5,264.4,179.5,442.48c0,39.57,7.35,77.54,20.99,112.71-1.6-10.03-6.42-45.19-4.95-89.71,2.94-85.03,35.7-157.36,39.71-165.78-2.94,9.09-28.88,93.45-21.52,165.78,12.97,129.68,48.26,186.77,68.59,210.04,0,0,.13,0,.13,.13,59.76,55.62,140.91,89.58,230.22,89.58h17.92v181.83h-39.57v-139.85c-198.94-10.43-356.97-169.79-356.97-364.85S303.3,76.95,512,76.95s377.96,163.64,377.96,365.39Z"/></g><g class="h"><polygon class="l" points="519.75 557.95 611.88 504.38 612.21 397.81 519.75 451.19 519.75 557.95 519.75 557.95"/><polygon class="k" points="519.75 451.19 612.21 397.81 519.75 344.8 427.29 397.81 519.75 451.19 519.75 451.19"/><polygon class="g" points="427.62 504.38 519.75 557.95 519.75 451.19 427.29 397.81 427.62 504.38 427.62 504.38"/></g></svg>